<svg width="800" height="1204" viewBox="0 0 800 1204" fill="none" xmlns="http://www.w3.org/2000/svg">
<g clip-path="url(#clip0_894_16074)">
<rect width="800" height="1204" rx="40" fill="#F9F8F5"/>
<g clip-path="url(#clip1_894_16074)">
<rect width="798.294" height="662" transform="translate(0 -54)" fill="url(#paint0_linear_894_16074)" fill-opacity="0.5"/>
<path fill-rule="evenodd" clip-rule="evenodd" d="M1381.61 97.0038C1386.59 100.279 1389.4 106.005 1388.9 111.949C1388.68 114.637 1387.77 117.259 1386.28 119.525L1379.23 130.228C1380.75 133.047 1381.47 136.291 1381.2 139.565C1380.94 142.572 1379.88 145.456 1378.1 147.926L1371.36 157.283C1373.03 160.238 1373.81 163.667 1373.52 167.172L1373.52 167.162C1373.24 170.501 1372.01 173.666 1369.94 176.318L1363.56 184.472C1365.34 187.556 1366.17 191.15 1365.87 194.784L1365.88 194.785C1365.57 198.454 1364.15 201.889 1361.77 204.72L1355.85 211.728C1357.71 214.907 1358.55 218.6 1358.24 222.388C1357.91 226.409 1356.3 230.112 1353.59 233.111L1348.19 239.073C1350.08 242.345 1350.95 246.136 1350.63 250.004C1350.27 254.305 1348.43 258.385 1345.42 261.503L1340.6 266.491C1342.5 269.837 1343.37 273.705 1343.04 277.614C1342.66 282.256 1340.6 286.612 1337.25 289.885L1333.06 293.973C1334.93 297.378 1335.78 301.298 1335.46 305.234C1335.05 310.237 1332.78 314.86 1329.08 318.266L1325.56 321.498C1327.41 324.944 1328.22 328.848 1327.89 332.846L1327.9 332.836C1327.45 338.201 1324.97 343.11 1320.91 346.648L1318.11 349.091C1319.89 352.566 1320.67 356.474 1320.35 360.46C1319.87 366.187 1317.17 371.36 1312.74 375.029L1310.68 376.735C1312.39 380.229 1313.13 384.127 1312.81 388.076C1312.31 394.082 1309.31 399.677 1304.58 403.411L1303.29 404.429C1304.91 407.925 1305.61 411.798 1305.28 415.693C1304.76 422.072 1301.52 427.939 1296.41 431.783L1295.9 432.165C1297.43 435.654 1298.08 439.488 1297.77 443.321L1297.76 443.32C1297.21 449.94 1293.85 455.98 1288.54 459.949C1289.96 463.408 1290.56 467.18 1290.25 470.939C1289.7 477.595 1286.42 483.64 1281.18 487.715C1282.53 491.138 1283.07 494.813 1282.75 498.56C1282.19 505.262 1278.98 511.319 1273.82 515.504C1275.07 518.893 1275.57 522.507 1275.26 526.181L1275.27 526.172C1274.71 532.929 1271.55 539.003 1266.47 543.286C1267.63 546.638 1268.08 550.198 1267.78 553.805L1267.77 553.803C1267.22 560.493 1264.06 566.687 1259.09 571.064C1260.17 574.384 1260.59 577.89 1260.3 581.427L1260.31 581.428C1259.74 588.156 1256.63 594.378 1251.72 598.851C1252.73 602.132 1253.11 605.58 1252.82 609.05C1252.26 615.833 1249.2 622.067 1244.35 626.624C1245.3 629.869 1245.64 633.266 1245.36 636.675L1245.37 636.676C1244.8 643.505 1241.77 649.773 1236.97 654.417C1237.86 657.619 1238.17 660.957 1237.89 664.3C1237.33 671.176 1234.35 677.473 1229.6 682.196C1230.43 685.36 1230.72 688.649 1230.45 691.937L1230.45 691.927C1229.61 702.006 1223.76 710.812 1214.8 715.494L421.517 1130.02C414.569 1133.66 406.611 1134.38 399.115 1132.04C391.617 1129.71 385.484 1124.61 381.842 1117.67L-34.1225 326.295C-36.7138 321.359 -37.8397 315.825 -37.3883 310.293C-36.5599 300.223 -30.7086 291.407 -21.7467 286.725L771.533 -127.806C775.534 -129.897 779.87 -131.02 784.26 -131.152C787.159 -132.207 790.184 -132.78 793.236 -132.861C796.166 -133.936 799.199 -134.49 802.213 -134.557C805.108 -135.643 808.144 -136.222 811.212 -136.28C814.089 -137.374 817.113 -137.953 820.173 -138.001C823.072 -139.116 826.095 -139.676 829.1 -139.715C831.993 -140.859 835.059 -141.451 838.167 -141.467C840.996 -142.594 844.002 -143.178 847.053 -143.19C849.916 -144.359 852.971 -144.954 856.075 -144.945C858.903 -146.113 861.932 -146.705 865.015 -146.686C867.89 -147.896 870.943 -148.473 873.976 -148.444C876.84 -149.675 879.895 -150.257 882.93 -150.215C885.739 -151.453 888.792 -152.067 891.918 -152.003C894.751 -153.267 897.802 -153.856 900.831 -153.786C903.612 -155.071 906.672 -155.703 909.821 -155.608C912.445 -156.839 915.335 -157.469 918.32 -157.433C918.478 -157.431 918.636 -157.427 918.793 -157.421C921.594 -158.757 924.665 -159.367 927.714 -159.247C930.509 -160.617 933.594 -161.241 936.659 -161.102C939.439 -162.5 942.531 -163.135 945.603 -162.978C948.363 -164.398 951.455 -165.043 954.529 -164.869C957.269 -166.315 960.363 -166.974 963.441 -166.786C968.559 -169.562 975.011 -169.513 980.21 -166.106L1381.61 97.0038ZM967.712 -165.961C971.408 -166.928 975.486 -166.39 978.926 -164.138L1380.3 98.9693C1384.58 101.768 1386.97 106.669 1386.55 111.755C1386.36 114.05 1385.59 116.292 1384.31 118.229L1377.83 128.054C1376.84 126.74 1375.64 125.565 1374.27 124.582L972.182 -163.677C970.779 -164.683 969.271 -165.441 967.712 -165.961ZM1376.46 130.139C1375.52 128.748 1374.32 127.51 1372.89 126.486L970.824 -161.781C968.738 -163.273 966.386 -164.13 964 -164.392C963.238 -163.93 962.514 -163.391 961.844 -162.779C962.641 -162.341 963.414 -161.835 964.155 -161.259L1363.64 149.6L1376.46 130.139ZM1377.75 132.485C1378.66 134.606 1379.05 136.956 1378.85 139.371C1378.64 141.956 1377.72 144.44 1376.2 146.566L1369.98 155.201C1369.1 154.08 1368.08 153.056 1366.93 152.16L1365.51 151.056L1377.75 132.485ZM1364.22 153.018L1365.49 154.003C1366.67 154.926 1367.7 156.005 1368.54 157.199L1355.04 175.925L1351.23 172.728L1364.22 153.018ZM1349.94 174.693L1353.67 177.826L1340.23 196.489L1337.31 193.865L1349.94 174.693ZM1335.54 192.269L1348.12 173.166L956.509 -155.452L953.777 -151.305L1335.54 192.269ZM1336.01 195.847L1338.85 198.404L1325.8 216.519L1323.71 214.514L1336.01 195.847ZM1321.98 212.853L1334.23 194.25L952.469 -149.319L949.549 -144.885L1321.98 212.853ZM1322.39 216.509L1324.41 218.443L1311.71 236.063L1310.4 234.72L1322.39 216.509ZM1308.71 232.997L1320.67 214.847L948.235 -142.891L945.136 -138.186L1308.71 232.997ZM1309.08 236.724L1310.32 237.995L1297.96 255.154L1297.36 254.509L1309.08 236.724ZM1295.71 252.728L1307.39 235.001L943.816 -136.182L940.559 -131.237L1295.71 252.728ZM1296.03 256.527L1296.56 257.097L1286.04 271.691L1296.03 256.527ZM1282.97 272.08L1294.38 254.746L939.226 -129.214L935.823 -124.047L1282.97 272.08ZM1270.46 291.071L1281.63 274.108L934.491 -122.025L930.943 -116.638L1270.46 291.071ZM1258.17 309.724L1269.11 293.113L929.591 -114.586L925.933 -109.032L1258.17 309.724ZM1253.18 317.301L1256.81 311.793L924.567 -106.958L920.789 -101.223L1245.74 327.631L1253.18 317.301ZM1215.63 374.314L1218.5 369.947L1213.9 375.837L1211.29 379.46L1215.63 374.314ZM1217.43 375.845L1212.31 383.616L1213.14 384.853L1225.01 371.732L1223.15 369.063L1217.43 375.845ZM1234.27 350.284L1228.47 359.083L1235.02 351.32L1234.27 350.284ZM1236.35 347.135L1235.65 348.184L1236.58 349.467L1248.57 335.259L1247.12 333.353L1236.35 347.135ZM1255.21 318.5L1252.27 322.962L1258.92 314.455L1258.5 313.927L1255.21 318.5ZM1210.91 385.741L1207.1 391.529L1211.52 386.646L1210.91 385.741ZM1199.5 398.801L1204.59 391.069L1198.88 397.84L1199.5 398.801ZM1196.76 402.962L1198.09 400.947L1197.3 399.719L1193.15 404.635L1186.76 413.5L1186.95 413.804L1196.76 402.962ZM1198.59 404.455L1199.61 403.321L1201.85 406.807L1190.14 418.942L1189.61 418.087L1198.59 404.455ZM1188.18 420.25L1188.45 420.687L1186.7 422.506L1188.18 420.25ZM1177.86 431.66L1186.82 418.052L1186.6 417.702L1175.48 430.002L1177 432.548L1177.86 431.66ZM1179.67 433.165L1178.47 434.999L1180.85 438.99L1192.66 427.482L1189.73 422.749L1179.67 433.165ZM1177.02 437.186L1167.45 451.724L1167.57 451.933L1179.12 440.682L1177.02 437.186ZM1166.14 449.454L1170.84 442.318L1165.32 448.035L1166.14 449.454ZM1159.01 460.273L1164.69 451.651L1163.62 449.796L1152.61 461.197L1154.53 464.636L1159.01 460.273ZM1160.81 461.797L1156.56 468.257L1158.61 471.926L1170.23 461.235L1167.04 455.725L1160.81 461.797ZM1155.1 470.466L1147.26 482.367L1156.83 473.561L1155.1 470.466ZM1144.52 482.276L1152.98 469.432L1142.88 479.265L1144.52 482.276ZM1140.14 488.918L1143.05 484.499L1141.14 480.967L1131.13 490.719L1130.38 491.764L1132.55 495.902L1140.14 488.918ZM1141.94 490.449L1144.83 487.785L1148.23 494.049L1136.81 504.003L1135.12 500.795L1141.94 490.449ZM1133.88 498.427L1134.82 496.999L1133.68 498.048L1133.88 498.427ZM1133.64 503.042L1134.98 505.593L1127.89 511.78L1133.64 503.042ZM1121.3 517.518L1132.4 500.674L1131.89 499.698L1110.45 519.42L1106.76 524.539C1109.26 524.946 1111.82 524.663 1114.16 523.749L1121.3 517.518ZM1123.06 519.1L1122.64 519.738C1120.82 522.517 1118.28 524.552 1115.42 525.762L1089.78 548.116L1089.26 548.827C1087.54 551.214 1085.31 553.014 1082.81 554.185L1056.44 577.171L1055.86 577.914C1054.29 579.93 1052.35 581.5 1050.21 582.604L1023.15 606.188L1022.48 606.983C1021.08 608.651 1019.43 609.994 1017.63 611.006L989.772 635.285L989.072 636.058C987.873 637.386 986.52 638.497 985.064 639.388L956.606 664.194L955.704 665.128C954.704 666.163 953.611 667.059 952.452 667.815L923.185 693.326L922.295 694.193C921.559 694.909 920.779 695.556 919.966 696.132L893.351 719.33L1139.97 515.073L1136.11 507.731L1123.06 519.1ZM1110.42 527.003C1108.71 527.152 1106.96 527.031 1105.26 526.628L1095.81 539.738L1110.42 527.003ZM1100.98 524.949L1087.8 537.077L1098.52 523.374L1100.07 524.395C1100.37 524.591 1100.67 524.775 1100.98 524.949ZM1095.96 521.702L1087.25 530.189L1094.96 521.047L1095.96 521.702ZM1096.53 519.272L1097.68 520.025L1099.64 518.121L1108.14 507.252L1096.53 519.272ZM1091.81 518.979L1066.11 547.395L1064.65 548.897L665.146 262.484C660.99 259.502 658.769 254.696 659.186 249.599L659.196 249.6C659.409 247.016 660.33 244.531 661.853 242.416L855.423 -26.2598L861.262 -15.1515L693.999 238.775C692.511 241.041 691.603 243.663 691.378 246.34C690.885 252.284 693.678 258.019 698.685 261.287L1091.81 518.979ZM862.519 -12.7598L695.988 240.061C694.708 241.999 693.922 244.239 693.736 246.535L693.724 246.544C693.308 251.631 695.706 256.531 699.977 259.34L1093.4 517.219L1118.5 489.472L1123.44 483.623L862.519 -12.7598ZM862.744 -17.4023L856.964 -28.3991L861.594 -34.8254L867.294 -24.3088L862.744 -17.4023ZM868.572 -21.9497L864.001 -15.0105L1125.07 481.679L1135.09 469.806L868.572 -21.9497ZM868.758 -26.5321L863.117 -36.9399L867.69 -43.2873L873.249 -33.3505L868.758 -26.5321ZM874.55 -31.0253L870.037 -24.173L1136.71 467.879L1146.9 455.803L874.55 -31.0253ZM874.705 -35.5595L869.205 -45.3898L873.715 -51.6494L879.132 -42.2803L874.705 -35.5595ZM880.455 -39.9903L876.005 -33.2344L1148.52 453.885L1158.88 441.601L880.455 -39.9903ZM880.583 -44.484L875.227 -53.7484L879.674 -59.921L884.946 -51.1077L880.583 -44.484ZM886.294 -48.8544L881.907 -42.1941L1160.49 439.689L1167.22 431.711L1170.92 426.98L886.294 -48.8544ZM886.381 -53.2865L881.171 -61.9976L885.55 -68.0762L890.675 -59.8055L886.381 -53.2865ZM892.048 -57.5903L887.729 -51.0332L1172.48 424.988L1182.88 411.69L892.048 -57.5903ZM892.101 -61.9695L887.037 -70.1405L891.333 -76.1031L896.311 -68.3612L892.101 -61.9695ZM897.71 -66.1857L893.474 -59.7543L1184.42 409.718L1195.01 396.17L897.71 -66.1857ZM897.731 -70.5173L892.816 -78.1617L897.037 -84.021L901.866 -76.7943L897.731 -70.5173ZM903.292 -74.6601L899.13 -68.3418L1196.55 394.21L1207.35 380.402L903.292 -74.6601ZM903.27 -78.9252L898.504 -86.0572L902.645 -91.8049L907.323 -85.0789L903.27 -78.9252ZM908.777 -82.9877L904.696 -76.791L1208.87 378.458L1212.05 374.386L1219.58 363.931L908.777 -82.9877ZM908.71 -87.1851L904.097 -93.8192L908.142 -99.4342L912.668 -93.1931L908.71 -87.1851ZM914.152 -91.147L910.165 -85.094L1221.04 361.913L1231.84 346.927L914.152 -91.147ZM914.048 -95.2878L909.587 -101.439L913.532 -106.916L917.905 -101.144L914.048 -95.2878ZM919.42 -99.145L915.532 -93.2417L1233.28 344.916L1244.3 329.627L919.42 -99.145ZM919.274 -103.222L914.967 -108.907L918.8 -114.227L923.02 -108.908L919.274 -103.222ZM924.386 -110.982L920.233 -116.216L923.944 -121.367L928.01 -116.484L924.386 -110.982ZM929.362 -118.537L925.364 -123.338L928.963 -128.333L932.875 -123.87L929.362 -118.537ZM934.207 -125.892L930.363 -130.277L933.813 -135.066L937.573 -131.002L934.207 -125.892ZM938.905 -133.025L935.216 -137.013L938.516 -141.593L942.123 -137.91L938.905 -133.025ZM943.443 -139.914L939.907 -143.524L943.044 -147.878L946.501 -144.556L943.443 -139.914ZM947.815 -146.551L944.43 -149.802L947.381 -153.898L950.692 -150.918L947.815 -146.551ZM952 -152.905L948.764 -155.817L950.694 -158.496C950.869 -158.739 951.05 -158.975 951.237 -159.203C952.423 -158.647 953.557 -157.93 954.605 -157.049L954.686 -156.981L952 -152.905ZM955.987 -158.957C955.03 -159.745 954.014 -160.415 952.956 -160.971C953.616 -161.541 954.32 -162.045 955.059 -162.479C956.029 -162.382 956.993 -162.189 957.937 -161.9C957.832 -161.752 957.729 -161.602 957.629 -161.45L955.987 -158.957ZM960.204 -160.994C961.074 -160.56 961.913 -160.035 962.709 -159.416L1362.35 151.563L1349.41 171.2L957.811 -157.428L959.606 -160.154C959.797 -160.444 959.996 -160.724 960.204 -160.994ZM959.539 -163.829C959.33 -163.906 959.119 -163.98 958.908 -164.048C959.265 -164.137 959.625 -164.212 959.987 -164.273C959.835 -164.129 959.686 -163.98 959.539 -163.829ZM1099.96 521.52L1101.37 522.439C1101.84 522.746 1102.32 523.022 1102.81 523.266L1108.66 517.88L1121.41 500.187L1101.4 519.682L1099.96 521.52ZM1371.18 166.98C1371.4 164.335 1370.92 161.736 1369.82 159.416L1356.84 177.434L1359.59 179.737C1360.55 180.547 1361.42 181.449 1362.18 182.424L1368.08 174.881C1369.88 172.591 1370.94 169.864 1371.18 166.98ZM1358.08 181.52L1355.47 179.336L1341.98 198.066L1346.66 202.275L1360.68 184.338C1359.94 183.304 1359.07 182.355 1358.08 181.52ZM1345.21 204.127L1340.6 199.98L1327.5 218.158L1331.35 221.851L1345.21 204.127ZM1329.89 223.71L1326.12 220.083L1313.38 237.763L1316.45 240.899L1329.89 223.71ZM1314.99 242.762L1311.99 239.694L1299.58 256.91L1301.94 259.455L1314.99 242.762ZM1300.47 261.327L1298.18 258.852L1286.09 275.64L1287.77 277.564L1300.47 261.327ZM1286.31 279.441L1284.68 277.59L1272.88 293.976L1273.94 295.252L1286.31 279.441ZM1272.47 297.138L1271.46 295.937L1259.93 311.943L1260.41 312.549L1272.47 297.138ZM1172.39 429.436L1170.73 431.732L1166.69 436.207L1168.78 433.534L1172.32 429.328L1172.39 429.436ZM1163.79 445.391L1172.52 433.269L1173.82 431.831L1175.3 434.306L1164.09 445.916L1163.79 445.391ZM1184.95 416.014L1185.28 415.563L1185.31 415.618L1184.95 416.014ZM1161.4 448.701L1162.28 447.483L1162.39 447.677L1161.4 448.701ZM1158.3 448.987L1151.25 458.772L1150.56 457.542L1158.3 448.987ZM1152.79 466.333L1151 463.136L1141.38 476.49L1141.72 477.118L1152.79 466.333ZM1140.38 473.863L1140.14 474.196L1140.11 474.142L1140.38 473.863ZM1139.97 478.82L1139.86 478.604L1139.06 479.711L1139.97 478.82ZM1138.61 476.311L1129.34 489.179L1129.13 489.389L1127.81 486.881L1138.4 475.913L1138.61 476.311ZM1117.26 509.975L1128.84 493.9L1130.76 497.552L1117.26 509.975ZM1101.86 527.327L1088.02 546.526L1081.52 552.196C1079.47 553.103 1077.24 553.525 1075.01 553.43L1078.92 548.433L1101.86 527.327ZM1073.29 555.625C1074.7 555.822 1076.12 555.838 1077.52 555.68L1064.1 567.379L1073.29 555.625ZM1059.43 563.18L1068.96 554.408C1068.45 554.187 1067.95 553.938 1067.46 553.662L1059.43 563.18ZM1034.57 580.057L1063.01 550.604L663.776 264.389C659.027 260.976 656.371 255.238 656.849 249.407C657.095 246.398 658.161 243.514 659.937 241.044L854.2 -28.5865L849.088 -38.3118L627.719 244.749C625.924 247.039 624.856 249.777 624.617 252.651L624.618 252.64C624.199 257.675 626.321 262.52 630.305 265.616L1033.08 579.035C1033.56 579.41 1034.06 579.75 1034.57 580.057ZM850.682 -40.3504L855.741 -30.7257L860.349 -37.1219L855.359 -46.3303L850.682 -40.3504ZM856.935 -48.3465L861.873 -39.2364L866.423 -45.5523L861.555 -54.2539L856.935 -48.3465ZM863.124 -56.2598L867.938 -47.6547L872.424 -53.8817L867.681 -62.0866L863.124 -56.2598ZM869.248 -64.0907L873.937 -55.9807L878.359 -62.1193L873.743 -69.8377L869.248 -64.0907ZM875.294 -71.8214L879.856 -64.1959L884.21 -70.239L879.721 -77.4819L875.294 -71.8214ZM881.264 -79.4555L885.697 -72.3033L889.966 -78.2289L885.607 -85.0082L881.264 -79.4555ZM887.147 -86.9779L891.449 -80.2875L895.643 -86.1082L891.415 -92.4355L887.147 -86.9779ZM892.94 -94.3853L897.11 -88.1445L901.222 -93.8519L897.127 -99.7395L892.94 -94.3853ZM898.637 -101.67L902.673 -95.8661L906.688 -101.439L902.728 -106.9L898.637 -101.67ZM904.232 -108.824L908.133 -103.444L912.047 -108.876L908.221 -113.925L904.232 -108.824ZM909.716 -115.836L913.481 -110.867L917.281 -116.141L913.591 -120.792L909.716 -115.836ZM915.086 -122.703L918.714 -118.131L922.39 -123.232L918.837 -127.499L915.086 -122.703ZM920.32 -129.395L923.81 -125.204L927.373 -130.148L923.957 -134.046L920.32 -129.395ZM925.421 -135.918L928.773 -132.092L932.184 -136.827L928.905 -140.372L925.421 -135.918ZM930.373 -142.25L933.587 -138.774L936.846 -143.297L933.702 -146.507L930.373 -142.25ZM935.16 -148.371L938.237 -145.228L941.331 -149.522L938.428 -152.311C938.392 -152.345 938.357 -152.379 938.321 -152.413L935.16 -148.371ZM940.053 -154.006L942.718 -151.447L945.598 -155.444C944.553 -156.253 943.433 -156.913 942.267 -157.427C942.101 -157.235 941.939 -157.039 941.781 -156.838L939.773 -154.27C939.867 -154.183 939.961 -154.095 940.053 -154.006ZM944.065 -159.175C945.075 -158.668 946.049 -158.061 946.973 -157.353L948.777 -159.857C948.828 -159.927 948.879 -159.997 948.93 -160.067C948.01 -160.329 947.07 -160.504 946.126 -160.592C945.407 -160.183 944.717 -159.71 944.065 -159.175ZM950.12 -162.157C950.282 -162.106 950.443 -162.051 950.604 -161.995C950.719 -162.108 950.834 -162.219 950.951 -162.327C950.672 -162.279 950.395 -162.222 950.12 -162.157ZM1070.88 552.642C1070.24 552.419 1069.61 552.149 1069 551.831L1071.73 548.589L1088.86 531.9L1077.16 546.868L1070.88 552.642ZM1361.98 186.493C1363.2 188.969 1363.76 191.762 1363.52 194.58C1363.25 197.764 1362.02 200.741 1359.95 203.195L1354.47 209.691C1353.81 208.841 1353.07 208.042 1352.24 207.305L1348.4 203.849L1361.98 186.493ZM1346.96 205.701L1350.68 209.049C1351.52 209.808 1352.27 210.641 1352.92 211.533L1338.46 228.681L1333.05 223.485L1346.96 205.701ZM1331.59 225.344L1336.94 230.48L1322.74 247.319L1318.11 242.59L1331.59 225.344ZM1316.65 244.454L1321.22 249.12L1307.46 265.43L1303.55 261.201L1316.65 244.454ZM1302.09 263.073L1305.94 267.237L1292.59 283.062L1289.35 279.361L1302.09 263.073ZM1287.88 281.238L1291.07 284.872L1278.1 300.246L1275.48 297.098L1287.88 281.238ZM1274 298.984L1276.57 302.063L1263.96 317.014L1261.91 314.441L1274 298.984ZM1260.42 316.347L1262.41 318.849L1250.12 333.416L1248.62 331.436L1260.42 316.347ZM1122.09 489.413L1124.39 486.474L1120.47 490.811L1118.57 493.063L1122.09 489.413ZM1146.41 462.129L1138.84 471.808L1138.93 471.972L1149.7 460.816L1148.9 459.38L1146.41 462.129ZM1123.84 490.988L1112.18 505.903L1127.37 491.104L1126.09 488.665L1123.84 490.988ZM1054.72 575.554L1068.27 558.227L1047.43 577.403L1043.44 582.134C1045.33 581.982 1047.19 581.475 1048.9 580.625L1054.72 575.554ZM1044.6 584.375C1043.55 584.518 1042.49 584.567 1041.43 584.518L1033.08 594.418L1044.6 584.375ZM1037.07 583.75L1033.02 587.475L1036.55 583.577C1036.64 583.61 1036.74 583.643 1036.84 583.675C1036.91 583.7 1036.99 583.725 1037.07 583.75ZM1032.89 581.792L1010.63 604.847L1004.91 610.424C1002.78 609.863 1000.73 608.835 998.934 607.327L595.463 268.758C591.64 265.546 589.605 260.671 590.017 255.698L590.015 255.708C590.273 252.523 591.508 249.546 593.586 247.083L843.407 -49.1185L847.891 -40.5894L625.864 243.313C623.794 245.965 622.546 249.128 622.269 252.467C621.792 258.278 624.255 263.898 628.857 267.48L1031.63 580.899C1032.04 581.218 1032.46 581.516 1032.89 581.792ZM849.485 -42.628L845.05 -51.0658L849.763 -56.6544L854.14 -48.5798L849.485 -42.628ZM855.716 -50.5959L851.388 -58.5813L856.045 -64.1029L860.313 -56.4741L855.716 -50.5959ZM861.882 -58.48L857.663 -66.021L862.257 -71.4679L866.415 -64.2763L861.882 -58.48ZM867.982 -66.2804L863.875 -73.3856L868.406 -78.7587L872.452 -71.9956L867.982 -66.2804ZM874.003 -73.9793L870.008 -80.6579L874.472 -85.9508L878.404 -79.6066L874.003 -73.9793ZM879.948 -81.5802L876.067 -87.8416L880.446 -93.0337L884.263 -87.0982L879.948 -81.5802ZM885.803 -89.068L882.039 -94.9222L886.344 -100.026L890.043 -94.4892L885.803 -89.068ZM891.568 -96.4391L887.921 -101.897L892.145 -106.904L895.726 -101.755L891.568 -96.4391ZM897.235 -103.686L893.708 -108.757L897.834 -113.649L901.295 -108.876L897.235 -103.686ZM902.799 -110.8L899.392 -115.497L903.416 -120.267L906.756 -115.859L902.799 -110.8ZM908.25 -117.771L904.966 -122.105L908.873 -126.738L912.091 -122.682L908.25 -117.771ZM913.586 -124.594L910.425 -128.578L914.206 -133.06L917.301 -129.343L913.586 -124.594ZM918.784 -131.24L915.746 -134.887L919.411 -139.233L922.383 -135.842L918.784 -131.24ZM923.847 -137.713L920.934 -141.038L924.442 -145.197L927.291 -142.117L923.847 -137.713ZM928.759 -143.995L925.97 -147.009L929.282 -150.936C929.641 -150.625 929.989 -150.298 930.325 -149.955L932.046 -148.198L928.759 -143.995ZM933.503 -150.061L932.006 -151.591C931.615 -151.989 931.211 -152.368 930.794 -152.728L932.87 -155.19C933.007 -155.352 933.147 -155.512 933.289 -155.667C934.408 -155.206 935.488 -154.616 936.504 -153.899L933.503 -150.061ZM937.953 -155.751C937.062 -156.388 936.129 -156.938 935.164 -157.401C935.8 -157.898 936.469 -158.339 937.162 -158.724C938.086 -158.646 939.005 -158.489 939.908 -158.251L937.953 -155.751ZM941.654 -160.177C941.537 -160.216 941.42 -160.254 941.303 -160.29C941.503 -160.335 941.704 -160.375 941.906 -160.411C941.821 -160.334 941.737 -160.256 941.654 -160.177ZM1038.29 581.651C1038.57 581.728 1038.85 581.796 1039.13 581.856L1045.62 575.881L1054.38 565.495L1041.92 577.633L1038.29 581.651ZM1355.89 222.194C1356.14 219.187 1355.55 216.251 1354.23 213.657L1340.17 230.325L1344.9 234.872C1345.61 235.553 1346.26 236.28 1346.84 237.047L1351.83 231.531C1354.2 228.917 1355.61 225.689 1355.89 222.194ZM1343.28 236.567L1338.65 232.124L1324.4 249.018L1330.44 255.182L1345.24 238.823C1344.66 238.021 1344 237.266 1343.28 236.567ZM1328.86 256.924L1322.88 250.819L1309.08 267.181L1314.39 272.921L1328.86 256.924ZM1312.81 274.668L1307.56 268.989L1294.17 284.863L1298.81 290.152L1312.81 274.668ZM1297.22 291.9L1292.64 286.673L1279.64 302.094L1283.65 306.909L1297.22 291.9ZM1282.06 308.662L1278.11 303.91L1265.46 318.906L1268.89 323.228L1282.06 308.662ZM1267.29 324.997L1263.91 320.741L1251.59 335.35L1254.47 339.159L1267.29 324.997ZM1252.87 340.934L1250.03 337.193L1238.02 351.441L1240.4 354.723L1252.87 340.934ZM1238.78 356.506L1236.45 353.294L1224.72 367.205L1226.63 369.945L1238.78 356.506ZM1071.51 545.194L1069.9 547.1L1066.93 549.99L1067.78 549.052L1071.51 545.194ZM1033.63 590.104L1021.41 604.593L1016.31 609.035C1014.98 609.761 1013.57 610.282 1012.11 610.593L1015.83 606.478L1033.63 590.104ZM1009.69 613.27C1010.36 613.239 1011.02 613.171 1011.69 613.067L1003.1 620.546L1009.69 613.27ZM974.845 639.716L1002.99 612.293C1001.01 611.604 999.126 610.553 997.43 609.131L593.961 270.552C589.551 266.859 587.204 261.233 587.68 255.506C587.979 251.835 589.407 248.402 591.793 245.571L842.231 -51.356L838.297 -58.84L559.442 249.416C557.085 252.021 555.682 255.259 555.395 258.753L555.396 258.743C554.981 263.747 556.879 268.542 560.611 271.899L964.775 635.628C967.661 638.223 971.24 639.575 974.845 639.716ZM839.984 -60.704L843.874 -53.3032L848.565 -58.8654L844.727 -65.9473L839.984 -60.704ZM846.396 -67.7926L850.19 -60.7922L854.824 -66.2862L851.083 -72.9735L846.396 -67.7926ZM852.746 -74.8115L856.442 -68.2044L861.012 -73.6224L857.369 -79.9227L852.746 -74.8115ZM859.033 -81.7614L862.629 -75.5402L867.136 -80.8832L863.594 -86.8038L859.033 -81.7614ZM865.242 -88.6256L868.737 -82.7823L873.175 -88.0439L869.736 -93.5933L865.242 -88.6256ZM871.378 -95.4083L874.77 -89.9347L879.122 -95.0939L875.786 -100.281L871.378 -95.4083ZM877.427 -102.095L880.714 -96.9825L884.99 -102.052L881.76 -106.885L877.427 -102.095ZM883.387 -108.683L886.568 -103.923L890.761 -108.894L887.639 -113.384L883.387 -108.683ZM889.251 -115.166L892.324 -110.747L896.418 -115.601L893.404 -119.757L889.251 -115.166ZM895.013 -121.535L897.976 -117.449L901.967 -122.18L899.063 -126.012L895.013 -121.535ZM900.664 -127.782L903.517 -124.018L907.389 -128.609L904.596 -132.129L900.664 -127.782ZM906.201 -133.903L908.941 -130.449L912.684 -134.887L910.003 -138.106L906.201 -133.903ZM911.598 -139.869L914.225 -136.714L917.851 -141.013L915.284 -143.943L911.598 -139.869ZM916.86 -145.686L919.374 -142.818L922.84 -146.928L922.231 -147.587C921.612 -148.257 920.949 -148.873 920.248 -149.431L916.86 -145.686ZM923.968 -149.174L924.369 -148.741L927.408 -152.344C926.434 -152.977 925.402 -153.505 924.325 -153.924C924.2 -153.796 924.078 -153.665 923.957 -153.531L921.825 -151.175C922.58 -150.565 923.297 -149.897 923.968 -149.174ZM926.28 -155.643C927.199 -155.217 928.085 -154.718 928.931 -154.15L930.873 -156.452C929.996 -156.664 929.106 -156.804 928.211 -156.871C927.544 -156.512 926.898 -156.102 926.28 -155.643ZM932.504 -158.438C932.533 -158.429 932.563 -158.42 932.592 -158.411C932.627 -158.4 932.662 -158.389 932.697 -158.378L932.735 -158.412L932.773 -158.447C932.794 -158.466 932.815 -158.485 932.836 -158.504C932.764 -158.49 932.692 -158.476 932.62 -158.462C932.582 -158.454 932.543 -158.446 932.504 -158.438ZM1346.53 240.918C1347.92 243.624 1348.55 246.692 1348.29 249.812C1347.98 253.576 1346.36 257.141 1343.72 259.878L1339.29 264.471C1338.76 263.763 1338.18 263.087 1337.56 262.449L1332.09 256.871L1346.53 240.918ZM1330.52 258.613L1335.88 264.085C1336.52 264.743 1337.11 265.447 1337.63 266.188L1322.58 281.774L1316 274.66L1330.52 258.613ZM1314.42 276.407L1320.95 283.465L1306.27 298.669L1300.37 291.939L1314.42 276.407ZM1298.79 293.687L1304.64 300.359L1290.44 315.064L1285.17 308.74L1298.79 293.687ZM1283.59 310.492L1288.8 316.757L1275.05 330.999L1270.37 325.101L1283.59 310.492ZM1268.77 326.869L1273.4 332.707L1260.06 346.528L1255.92 341.072L1268.77 326.869ZM1254.32 342.847L1258.4 348.24L1245.44 361.671L1241.81 356.673L1254.32 342.847ZM1240.2 358.456L1243.78 363.39L1231.16 376.46L1228.01 371.932L1240.2 358.456ZM1226.39 373.719L1229.49 378.181L1217.19 390.92L1214.49 386.874L1226.39 373.719ZM1212.87 388.667L1215.53 392.646L1203.53 405.07L1201.25 401.515L1212.87 388.667ZM1014.1 604.88L1015.18 603.695L1012.54 606.267L1012.06 606.764L1014.1 604.88ZM988.109 633.618L996.915 623.883L984.491 635.313L981.27 638.65C982.101 638.329 982.91 637.936 983.687 637.472L988.109 633.618ZM978.732 641.791C978.537 641.826 978.341 641.858 978.145 641.886L975.608 644.514L978.732 641.791ZM972.641 641.863L951.165 662.789L945.229 668.25C940.13 669.226 934.644 667.802 930.626 663.941L525.768 275.052C522.174 271.597 520.353 266.77 520.763 261.807L520.753 261.806C521.063 258.043 522.687 254.467 525.31 251.739L833.685 -67.6142L837.135 -61.0517L557.698 247.847C554.988 250.846 553.379 254.549 553.048 258.56C552.571 264.297 554.756 269.798 559.031 273.652L963.205 637.383C965.947 639.85 969.239 641.336 972.641 641.863ZM838.821 -62.9158L835.412 -69.4021L840.179 -74.3389L843.542 -68.134L838.821 -62.9158ZM845.211 -69.9794L841.889 -76.1095L846.599 -80.988L849.874 -75.1342L845.211 -69.9794ZM851.537 -76.9721L848.303 -82.7525L852.951 -87.5655L856.136 -82.0561L851.537 -76.9721ZM857.799 -83.8948L854.656 -89.3316L859.242 -94.0803L862.335 -88.9088L857.799 -83.8948ZM863.983 -90.7305L860.932 -95.8309L865.45 -100.51L868.45 -95.6685L863.983 -90.7305ZM870.092 -97.4834L867.135 -102.255L871.566 -106.844L874.472 -102.325L870.092 -97.4834ZM876.113 -104.139L873.252 -108.589L877.608 -113.1L880.417 -108.897L876.113 -104.139ZM882.043 -110.695L879.279 -114.831L883.554 -119.258L886.264 -115.361L882.043 -110.695ZM887.876 -117.143L885.211 -120.975L889.386 -125.298L891.997 -121.698L887.876 -117.143ZM893.605 -123.476L891.041 -127.012L895.111 -131.227L897.621 -127.915L893.605 -123.476ZM899.222 -129.685L896.76 -132.935L900.711 -137.026L903.118 -133.992L899.222 -129.685ZM904.723 -135.766L902.364 -138.738L906.183 -142.693L908.487 -139.927L904.723 -135.766ZM910.082 -141.689L907.873 -144.342L907.828 -144.396L911.226 -147.915C912.109 -147.268 912.944 -146.533 913.719 -145.71L910.082 -141.689ZM915.289 -147.446C914.527 -148.241 913.715 -148.961 912.861 -149.608L915.056 -151.882C915.155 -151.984 915.254 -152.085 915.355 -152.184C916.38 -151.808 917.366 -151.338 918.304 -150.778L915.289 -147.446ZM919.905 -152.548C919.098 -153.055 918.259 -153.503 917.391 -153.89C918 -154.321 918.632 -154.706 919.282 -155.045C920.147 -154.986 920.999 -154.863 921.832 -154.679L919.905 -152.548ZM923.744 -156.605L923.74 -156.607L923.747 -156.608L923.744 -156.605ZM1340.69 277.42C1340.96 274.221 1340.31 271.06 1338.89 268.268L1324.18 283.502L1330.21 290.026C1330.78 290.633 1331.3 291.271 1331.77 291.937L1335.61 288.203C1338.55 285.328 1340.35 281.503 1340.69 277.42ZM1328.49 291.614L1322.55 285.192L1307.82 300.442L1314.83 308.443L1330.07 293.598C1329.59 292.903 1329.07 292.24 1328.49 291.614ZM1313.15 310.079L1306.19 302.132L1291.95 316.88L1298.32 324.532L1313.15 310.079ZM1296.64 326.169L1290.32 318.573L1276.53 332.856L1282.3 340.139L1296.64 326.169ZM1280.61 341.79L1274.88 334.564L1261.49 348.424L1266.72 355.322L1280.61 341.79ZM1265.02 356.976L1259.84 350.136L1246.84 363.604L1251.55 370.104L1265.02 356.976ZM1249.85 371.764L1245.18 365.323L1232.52 378.428L1236.76 384.517L1249.85 371.764ZM1235.05 386.177L1230.86 380.149L1218.53 392.921L1222.32 398.588L1235.05 386.177ZM1220.61 400.252L1216.86 394.647L1204.84 407.103L1208.2 412.339L1220.61 400.252ZM1206.49 414.012L1203.16 408.839L1191.41 421.005L1194.39 425.802L1206.49 414.012ZM955.116 662.341L954.906 662.559L954.403 662.997L955.116 662.341ZM914.796 696.25L942.379 670.872C937.573 670.939 932.739 669.195 929.013 665.617L524.154 276.738C520.048 272.79 517.958 267.281 518.427 261.605C518.774 257.313 520.63 253.224 523.636 250.116L832.536 -69.8002L829.507 -75.5627L491.199 254.065C488.255 256.93 486.452 260.765 486.111 264.848L486.101 264.847C485.695 269.779 487.449 274.64 490.917 278.182L896.47 692.222C901.371 697.232 908.625 698.585 914.796 696.25ZM831.271 -77.2807L834.263 -71.5881L839.007 -76.5014L836.057 -81.9443L831.271 -77.2807ZM837.804 -83.6464L840.717 -78.2721L845.403 -83.126L842.534 -88.2551L837.804 -83.6464ZM844.276 -89.952L847.107 -84.8905L851.73 -89.6778L848.942 -94.499L844.276 -89.952ZM850.686 -96.1983L853.435 -91.444L857.994 -96.1659L855.291 -100.685L850.686 -96.1983ZM857.021 -102.37L859.684 -97.9164L864.175 -102.567L861.557 -106.79L857.021 -102.37ZM863.282 -108.471L865.86 -104.312L870.262 -108.871L867.732 -112.807L863.282 -108.471ZM869.458 -114.488L871.948 -110.617L876.274 -115.097L873.833 -118.751L869.458 -114.488ZM875.545 -120.42L877.945 -116.828L882.188 -121.222L879.837 -124.601L875.545 -120.42ZM881.537 -126.258L883.845 -122.939L887.987 -127.228L885.729 -130.341L881.537 -126.258ZM887.427 -131.996L889.642 -128.942L893.677 -133.121L891.513 -135.977L887.427 -131.996ZM893.205 -137.626L895.325 -134.828L899.239 -138.881L897.971 -140.48C897.703 -140.818 897.426 -141.145 897.14 -141.46L893.205 -137.626ZM899.827 -141.936L900.892 -140.594L904.589 -144.422C903.838 -145.143 903.034 -145.795 902.186 -146.376L898.83 -143.107C899.173 -142.731 899.506 -142.341 899.827 -141.936ZM903.897 -148.043C904.712 -147.459 905.488 -146.814 906.221 -146.112L909.204 -149.202C908.292 -149.701 907.345 -150.118 906.373 -150.452C906.297 -150.38 906.22 -150.307 906.145 -150.234L903.897 -148.043ZM908.48 -152.143C909.301 -151.795 910.102 -151.393 910.878 -150.936L912.784 -152.91C911.978 -153.073 911.155 -153.181 910.32 -153.233C909.687 -152.91 909.072 -152.546 908.48 -152.143ZM1331.3 295.686C1332.73 298.555 1333.38 301.794 1333.11 305.041C1332.75 309.456 1330.75 313.537 1327.49 316.549L1324.32 319.464C1323.87 318.818 1323.38 318.192 1322.85 317.591L1316.39 310.215L1331.3 295.686ZM1314.71 311.851L1321.09 319.133C1321.63 319.751 1322.13 320.398 1322.57 321.069L1307.21 335.204L1299.83 326.345L1314.71 311.851ZM1298.15 327.982L1305.49 336.79L1290.55 350.533L1283.77 341.992L1298.15 327.982ZM1282.08 343.642L1288.81 352.13L1274.37 365.418L1268.15 357.211L1282.08 343.642ZM1266.46 358.866L1272.63 367.018L1258.65 379.887L1252.95 372.028L1266.46 358.866ZM1251.24 373.688L1256.9 381.491L1243.34 393.973L1238.12 386.474L1251.24 373.688ZM1236.42 388.134L1241.59 395.577L1228.41 407.706L1223.65 400.576L1236.42 388.134ZM1221.94 402.241L1226.66 409.313L1213.84 421.108L1209.5 414.357L1221.94 402.241ZM1207.78 416.03L1212.09 422.723L1199.6 434.213L1195.66 427.848L1207.78 416.03ZM1193.93 429.528L1197.84 435.833L1185.66 447.034L1182.09 441.063L1193.93 429.528ZM1180.36 442.756L1183.89 448.666L1172 459.603L1168.78 454.032L1180.36 442.756ZM911.223 699.538C905.361 700.294 899.224 698.397 894.788 693.868L489.227 279.817C485.286 275.796 483.293 270.268 483.754 264.654C484.134 260.011 486.192 255.655 489.541 252.392L828.365 -77.7359L825.71 -82.787L457.066 256.399C453.801 259.4 451.799 263.492 451.437 267.907L451.436 267.917C451.022 272.827 452.709 277.721 456.063 281.344L862.31 720.533C868.505 727.229 878.736 728.05 885.897 722.711L888.546 720.402L911.223 699.538ZM830.128 -79.4538L827.507 -84.4405L832.309 -88.859L834.892 -84.0948L830.128 -79.4538ZM836.638 -85.7969L834.091 -90.4979L838.836 -94.8644L841.344 -90.3819L836.638 -85.7969ZM843.086 -92.0788L840.613 -96.4989L845.295 -100.807L847.727 -96.601L843.086 -92.0788ZM849.471 -98.3003L847.075 -102.445L851.696 -106.696L854.049 -102.761L849.471 -98.3003ZM855.779 -104.446L853.461 -108.32L858.013 -112.509L860.288 -108.839L855.779 -104.446ZM862.013 -110.52L859.775 -114.13L864.24 -118.238L866.433 -114.827L862.013 -110.52ZM868.159 -116.509L866.004 -119.861L870.393 -123.899L872.503 -120.741L868.159 -116.509ZM874.216 -122.41L872.144 -125.51L876.45 -129.472L878.475 -126.56L874.216 -122.41ZM880.175 -128.216L878.189 -131.072L882.393 -134.941L884.332 -132.267L880.175 -128.216ZM886.031 -133.921L884.132 -136.54L888.091 -140.183C888.731 -139.542 889.335 -138.85 889.897 -138.109L890.08 -137.867L886.031 -133.921ZM891.773 -139.516L891.769 -139.522C891.161 -140.324 890.508 -141.075 889.818 -141.772L893.143 -144.831C893.949 -144.319 894.724 -143.745 895.459 -143.107L891.773 -139.516ZM897.151 -144.756C896.442 -145.381 895.699 -145.954 894.928 -146.474L897.235 -148.596C897.254 -148.614 897.274 -148.632 897.294 -148.65C897.325 -148.679 897.356 -148.707 897.387 -148.735C898.318 -148.433 899.221 -148.06 900.089 -147.619L897.151 -144.756ZM901.853 -149.338C901.121 -149.746 900.364 -150.109 899.586 -150.427C900.153 -150.795 900.737 -151.13 901.338 -151.429C902.134 -151.387 902.928 -151.294 903.713 -151.15L901.853 -149.338ZM1325.55 332.652C1325.82 329.317 1325.2 326.061 1323.77 323.147L1308.71 337.005L1315.51 345.168C1316.01 345.768 1316.47 346.389 1316.9 347.029L1319.36 344.884C1322.95 341.746 1325.15 337.398 1325.55 332.652ZM1313.7 346.652L1306.99 338.59L1292.01 352.371L1299.68 362.037L1315.11 348.582C1314.69 347.915 1314.21 347.271 1313.7 346.652ZM1297.9 363.585L1290.27 353.968L1275.79 367.292L1282.89 376.666L1297.9 363.585ZM1281.12 378.216L1274.05 368.892L1260.03 381.795L1266.61 390.864L1281.12 378.216ZM1264.82 392.417L1258.29 383.399L1244.68 395.913L1250.77 404.666L1264.82 392.417ZM1248.99 406.218L1242.94 397.517L1229.73 409.676L1235.36 418.103L1248.99 406.218ZM1233.57 419.656L1227.98 411.283L1215.13 423.107L1220.33 431.199L1233.57 419.656ZM1218.54 432.759L1213.37 424.722L1200.86 436.239L1205.66 443.989L1218.54 432.759ZM1203.86 445.554L1199.09 437.86L1186.89 449.087L1191.32 456.488L1203.86 445.554ZM1189.51 458.063L1185.12 450.719L1173.2 461.681L1177.28 468.727L1189.51 458.063ZM1175.47 470.302L1171.43 463.313L1159.79 474.028L1163.53 480.714L1175.47 470.302ZM1161.72 482.291L1158.01 475.662L1146.61 486.146L1150.04 492.469L1161.72 482.291ZM853.956 750.552L879.777 728.045C873.008 729.573 865.621 727.558 860.585 722.111L454.337 282.921C450.544 278.815 448.626 273.265 449.091 267.703C449.506 262.71 451.775 258.078 455.477 254.672L824.581 -84.9358L822.256 -89.3586L422.935 258.712C419.33 261.848 417.139 266.188 416.744 270.943L416.734 270.942C416.314 275.903 417.908 280.712 421.193 284.461L828.133 748.811C834.787 756.394 846.357 757.173 853.956 750.552ZM824.084 -90.9524L826.378 -86.5893L831.157 -90.9862L828.9 -95.15L824.084 -90.9524ZM830.713 -96.7303L832.938 -92.6251L837.659 -96.9691L835.472 -100.879L830.713 -96.7303ZM837.281 -102.455L839.436 -98.6036L844.092 -102.888L841.976 -106.548L837.281 -102.455ZM843.789 -108.129L845.872 -104.526L850.466 -108.752L848.423 -112.167L843.789 -108.129ZM850.222 -113.735L852.231 -110.377L856.755 -114.539L854.787 -117.715L850.222 -113.735ZM856.584 -119.281L858.517 -116.16L862.952 -120.241L861.06 -123.183L856.584 -119.281ZM862.859 -124.751L864.716 -121.864L869.074 -125.873L867.26 -128.587L862.859 -124.751ZM869.048 -130.145L870.825 -127.485L875.098 -131.416L873.74 -133.369C873.615 -133.549 873.487 -133.726 873.357 -133.902L869.048 -130.145ZM875.665 -134.702L876.837 -133.016L880.973 -136.822C880.371 -137.547 879.726 -138.226 879.041 -138.856L875.127 -135.445C875.311 -135.201 875.49 -134.953 875.665 -134.702ZM880.821 -140.408C881.483 -139.784 882.112 -139.118 882.702 -138.413L886.33 -141.751C885.62 -142.312 884.878 -142.82 884.11 -143.274L880.821 -140.408ZM885.962 -144.889C886.691 -144.423 887.397 -143.912 888.076 -143.357L890.972 -146.021C890.136 -146.413 889.275 -146.743 888.398 -147.012C888.377 -146.994 888.356 -146.975 888.335 -146.957L885.962 -144.889ZM890.687 -148.698C891.414 -148.413 892.127 -148.089 892.824 -147.726L894.647 -149.403C894.184 -149.48 893.716 -149.54 893.244 -149.583C892.963 -149.609 892.682 -149.628 892.402 -149.642C891.818 -149.36 891.245 -149.045 890.687 -148.698ZM1316.28 350.684C1317.68 353.641 1318.28 356.922 1318 360.267C1317.57 365.353 1315.18 369.959 1311.24 373.219L1309.52 374.644C1309.1 373.984 1308.65 373.343 1308.16 372.724L1301.14 363.88L1316.28 350.684ZM1299.36 365.427L1306.31 374.182C1306.81 374.816 1307.27 375.476 1307.69 376.158L1292.22 388.972L1284.32 378.543L1299.36 365.427ZM1282.54 380.093L1290.4 390.474L1275.36 402.935L1267.99 392.774L1282.54 380.093ZM1266.21 394.326L1273.54 404.439L1258.99 416.489L1252.12 406.606L1266.21 394.326ZM1250.34 408.158L1257.18 417.992L1243.08 429.668L1236.67 420.073L1250.34 408.158ZM1234.89 421.626L1241.27 431.171L1227.59 442.496L1221.62 433.197L1234.89 421.626ZM1219.83 434.757L1225.77 444.005L1212.49 455.008L1206.91 446.013L1219.83 434.757ZM1205.12 447.578L1210.66 456.522L1197.74 467.222L1192.54 458.537L1205.12 447.578ZM1190.74 460.112L1195.9 468.745L1183.31 479.17L1178.48 470.8L1190.74 460.112ZM1176.67 472.375L1181.48 480.692L1169.2 490.859L1164.7 482.809L1176.67 472.375ZM1162.89 484.386L1167.36 492.382L1155.38 502.311L1151.19 494.586L1162.89 484.386ZM1149.38 496.166L1153.53 503.837L1141.82 513.537L1137.93 506.14L1149.38 496.166ZM848.81 756.222L820.615 779.574C812.595 786.214 800.649 785.105 793.976 777.102L386.342 287.592C383.159 283.772 381.631 278.94 382.04 273.988L382.049 273.999C382.476 268.903 384.867 264.307 388.813 261.036L819.106 -95.3511L821.132 -91.4961L421.383 256.948C417.329 260.487 414.838 265.384 414.398 270.75C413.937 276.353 415.725 281.772 419.43 286.003L826.369 750.363C832.091 756.89 841.068 758.942 848.81 756.222ZM822.961 -93.09L820.963 -96.8897L825.79 -100.888L827.753 -97.2669L822.961 -93.09ZM829.566 -98.8471L827.633 -102.413L832.403 -106.364L834.3 -102.974L829.566 -98.8471ZM836.109 -104.55L834.242 -107.887L838.948 -111.786L840.778 -108.621L836.109 -104.55ZM842.591 -110.201L840.792 -113.313L845.437 -117.159L847.197 -114.216L842.591 -110.201ZM848.996 -115.784L847.267 -118.675L851.843 -122.466L853.533 -119.739L848.996 -115.784ZM855.329 -121.304L853.671 -123.98L858.158 -127.696L859.776 -125.18L855.329 -121.304ZM861.575 -126.748L859.99 -129.213L864.315 -132.795C864.789 -132.22 865.236 -131.617 865.656 -130.989L865.944 -130.557L861.575 -126.748ZM867.732 -132.115L867.617 -132.286C867.15 -132.984 866.651 -133.654 866.124 -134.293L869.995 -137.499C870.648 -136.944 871.271 -136.347 871.858 -135.712L867.732 -132.115ZM873.625 -137.252C873.054 -137.873 872.453 -138.462 871.825 -139.015L875.083 -141.714C875.815 -141.308 876.521 -140.858 877.198 -140.366L873.625 -137.252ZM879.01 -141.946C878.368 -142.436 877.701 -142.892 877.012 -143.311L879.412 -145.299C880.242 -145.06 881.057 -144.768 881.853 -144.424L879.01 -141.946ZM883.79 -146.112C883.134 -146.436 882.464 -146.726 881.782 -146.983C882.316 -147.303 882.863 -147.596 883.421 -147.86C884.138 -147.831 884.852 -147.763 885.561 -147.656L883.79 -146.112ZM1310.46 387.882C1310.74 384.557 1310.16 381.266 1308.81 378.283L1293.64 390.85L1300.8 400.3C1301.29 400.948 1301.75 401.619 1302.16 402.31L1303.11 401.564C1307.33 398.225 1310.01 393.237 1310.46 387.882ZM1298.92 401.712L1291.83 392.352L1276.74 404.845L1284.83 415.989L1300.3 403.781C1299.88 403.067 1299.42 402.376 1298.92 401.712ZM1282.98 417.448L1274.93 406.349L1260.34 418.429L1267.92 429.327L1282.98 417.448ZM1266.08 430.784L1258.53 419.932L1244.4 431.636L1251.51 442.279L1266.08 430.784ZM1249.66 443.736L1242.58 433.139L1228.88 444.491L1235.55 454.871L1249.66 443.736ZM1233.7 456.333L1227.06 446L1213.74 457.029L1220 467.139L1233.7 456.333ZM1218.15 468.604L1211.91 458.543L1198.96 469.268L1204.85 479.101L1218.15 468.604ZM1202.98 480.575L1197.12 470.791L1184.51 481.238L1190.03 490.79L1202.98 480.575ZM1188.17 492.262L1182.67 482.76L1170.37 492.95L1175.55 502.215L1188.17 492.262ZM1173.69 503.688L1168.53 494.473L1156.52 504.423L1161.38 513.397L1173.69 503.688ZM1159.51 514.872L1154.68 505.948L1142.94 515.669L1147.5 524.349L1159.51 514.872ZM1145.62 525.834L1141.09 517.205L829.399 775.364L1145.62 525.834ZM787.273 808.605L819.13 783.467C810.335 788.51 798.872 786.664 792.175 778.618L384.54 289.108C380.959 284.809 379.246 279.379 379.702 273.806C380.178 268.079 382.872 262.905 387.307 259.237L817.987 -97.4796L816.221 -100.839L354.682 263.35C350.456 266.689 347.777 271.666 347.336 277.032L347.326 277.031C346.918 281.973 348.39 286.84 351.479 290.732L759.809 805.392C766.499 813.836 778.821 815.274 787.273 808.605ZM818.106 -102.326L819.845 -99.0182L824.648 -102.996L822.942 -106.143L818.106 -102.326ZM824.812 -107.618L826.49 -104.522L831.235 -108.452L829.592 -111.39L824.812 -107.618ZM831.458 -112.863L833.074 -109.975L837.754 -113.852L836.174 -116.584L831.458 -112.863ZM838.047 -118.062L839.598 -115.379L844.214 -119.203L842.701 -121.734L838.047 -118.062ZM844.56 -123.201L846.045 -120.719L850.592 -124.485L849.499 -126.249C849.381 -126.439 849.26 -126.627 849.138 -126.813L844.56 -123.201ZM851.504 -127.478L852.42 -125.999L856.849 -129.667C856.35 -130.357 855.817 -131.015 855.252 -131.638L850.99 -128.275C851.165 -128.013 851.337 -127.747 851.504 -127.478ZM857.108 -133.102C857.657 -132.489 858.179 -131.847 858.67 -131.176L862.723 -134.533C862.151 -135.094 861.551 -135.621 860.925 -136.114L857.108 -133.102ZM862.813 -137.604C863.412 -137.111 863.987 -136.588 864.539 -136.037L868.066 -138.958C867.416 -139.394 866.742 -139.793 866.046 -140.155L862.813 -137.604ZM868.045 -141.733C868.697 -141.356 869.329 -140.948 869.941 -140.511L872.74 -142.829C871.986 -143.131 871.211 -143.391 870.419 -143.605L868.045 -141.733ZM872.886 -145.287C873.527 -145.055 874.155 -144.796 874.769 -144.51L876.468 -145.917C875.794 -146.008 875.115 -146.064 874.434 -146.087C873.91 -145.845 873.393 -145.579 872.886 -145.287ZM1301.38 405.934C1302.66 408.927 1303.21 412.207 1302.94 415.499C1302.46 421.216 1299.57 426.459 1294.99 429.91L1294.83 430.027C1294.41 429.284 1293.94 428.562 1293.44 427.865L1286.21 417.9L1301.38 405.934ZM1284.36 419.36L1291.53 429.242C1292.05 429.953 1292.51 430.693 1292.93 431.457L1277.49 443.091L1269.27 431.267L1284.36 419.36ZM1267.43 432.724L1275.62 444.505L1260.57 455.843L1252.82 444.246L1267.43 432.724ZM1250.98 445.703L1258.7 457.256L1244.14 468.226L1236.83 456.864L1250.98 445.703ZM1234.98 458.325L1242.26 469.643L1228.15 480.277L1221.25 469.156L1234.98 458.325ZM1219.4 470.621L1226.26 481.698L1212.57 492.015L1206.07 481.141L1219.4 470.621ZM1204.2 482.615L1210.68 493.444L1197.37 503.473L1191.22 492.852L1204.2 482.615ZM1189.36 494.324L1195.47 504.899L1182.52 514.662L1176.72 504.297L1189.36 494.324ZM1174.85 505.77L1180.62 516.088L1168 525.603L1162.52 515.499L1174.85 505.77ZM1160.65 516.974L1166.1 527.031L1153.79 536.31L1148.62 526.47L1160.65 516.974ZM1146.74 527.954L1151.88 537.746L753.932 837.627C745.05 844.314 732.362 842.547 725.65 833.693L316.627 293.873C313.629 289.92 312.204 285.017 312.612 280.075L312.62 280.086C313.094 274.38 315.986 269.126 320.561 265.675L813.587 -105.85L815.115 -102.944L353.222 261.524C348.486 265.259 345.489 270.843 344.988 276.849C344.525 282.39 346.184 287.845 349.642 292.201L757.971 806.862C765.465 816.306 779.27 817.911 788.732 810.441L1146.74 527.954ZM816.999 -104.431L815.497 -107.289L820.342 -110.94L821.812 -108.229L816.999 -104.431ZM823.681 -109.704L822.237 -112.369L827.026 -115.977L828.436 -113.456L823.681 -109.704ZM830.303 -114.929L828.918 -117.403L833.643 -120.963L834.992 -118.629L830.303 -114.929ZM836.865 -120.107L835.542 -122.394L840.112 -125.838C840.578 -125.207 841.016 -124.549 841.424 -123.868L841.49 -123.757L836.865 -120.107ZM843.349 -125.223C842.924 -125.924 842.47 -126.601 841.988 -127.252L846.202 -130.427C846.744 -129.882 847.262 -129.306 847.755 -128.7L843.349 -125.223ZM849.601 -130.156C849.121 -130.748 848.618 -131.314 848.095 -131.854L851.865 -134.695C852.46 -134.259 853.033 -133.793 853.583 -133.299L849.601 -130.156ZM855.459 -134.779C854.932 -135.266 854.386 -135.73 853.821 -136.169L857.01 -138.572C857.667 -138.251 858.306 -137.898 858.925 -137.514L855.459 -134.779ZM860.87 -139.049C860.291 -139.436 859.695 -139.798 859.084 -140.134L861.444 -141.913C862.189 -141.722 862.919 -141.494 863.632 -141.228L860.87 -139.049ZM865.749 -142.898C865.177 -143.151 864.593 -143.381 863.999 -143.589C864.49 -143.86 864.99 -144.109 865.495 -144.336C866.126 -144.318 866.758 -144.27 867.391 -144.194L865.749 -142.898ZM1295.42 443.128C1295.69 439.869 1295.18 436.615 1293.96 433.625L1278.84 445.023L1286.08 455.429C1286.6 456.186 1287.08 456.971 1287.51 457.778C1292.07 454.21 1294.93 448.915 1295.42 443.128ZM1284.15 456.773L1276.96 446.437L1261.88 457.802L1270.21 470.274L1285.6 459.18C1285.17 458.35 1284.69 457.545 1284.15 456.773ZM1268.31 471.646L1260.01 459.215L1245.41 470.21L1253.3 482.472L1268.31 471.646ZM1251.39 483.848L1243.53 471.627L1229.39 482.284L1236.86 494.331L1251.39 483.848ZM1234.95 495.709L1227.51 483.705L1213.78 494.045L1220.86 505.869L1234.95 495.709ZM1218.94 507.254L1211.89 495.473L1198.55 505.524L1205.25 517.121L1218.94 507.254ZM1203.34 518.504L1196.66 506.95L1183.68 516.733L1190.03 528.098L1203.34 518.504ZM1188.12 529.481L1181.78 518.159L1169.13 527.693L1175.16 538.822L1188.12 529.481ZM1173.24 540.207L1167.24 529.121L1154.9 538.418L1160.62 549.308L1173.24 540.207ZM1158.69 550.7L1152.99 539.854L755.333 839.507C745.421 846.983 731.255 845.008 723.767 835.115L314.744 295.295C311.397 290.879 309.804 285.402 310.263 279.892C310.791 273.513 314.031 267.656 319.137 263.802L812.481 -107.954L811.173 -110.444L286.43 267.988C281.496 271.551 278.383 277.069 277.875 283.126C277.467 288.068 278.848 292.996 281.765 297.012L691.481 861.993C698.211 871.278 711.275 873.374 720.579 866.657L1158.69 550.7ZM813.106 -111.838L814.391 -109.393L819.212 -113.026L817.959 -115.338L813.106 -111.838ZM819.878 -116.722L821.107 -114.454L825.87 -118.043L825.275 -119.106C825.074 -119.465 824.865 -119.817 824.65 -120.163L819.878 -116.722ZM827.322 -120.256L827.763 -119.469L832.412 -122.972C831.988 -123.601 831.538 -124.207 831.064 -124.789L826.559 -121.54C826.823 -121.121 827.078 -120.693 827.322 -120.256ZM832.98 -126.17C833.441 -125.598 833.881 -125.006 834.298 -124.394L838.629 -127.658C838.155 -128.185 837.659 -128.691 837.142 -129.172L832.98 -126.17ZM839.081 -130.571C839.576 -130.093 840.054 -129.594 840.512 -129.076L844.436 -132.033C843.908 -132.466 843.363 -132.873 842.804 -133.255L839.081 -130.571ZM844.817 -134.707C845.345 -134.321 845.861 -133.913 846.361 -133.484L849.775 -136.057C849.191 -136.392 848.592 -136.703 847.977 -136.986L844.817 -134.707ZM850.136 -138.543C850.704 -138.244 851.259 -137.924 851.801 -137.583L854.499 -139.616C853.831 -139.847 853.149 -140.047 852.455 -140.215L850.136 -138.543ZM855.09 -141.888C855.637 -141.703 856.176 -141.501 856.706 -141.28L858.298 -142.479C857.71 -142.541 857.122 -142.579 856.537 -142.593C856.047 -142.378 855.564 -142.142 855.09 -141.888ZM1286.58 461.367C1287.71 464.341 1288.18 467.551 1287.91 470.747C1287.43 476.56 1284.64 481.849 1280.19 485.517C1279.75 484.655 1279.26 483.813 1278.71 482.994L1271.52 472.226L1286.58 461.367ZM1269.62 473.598L1276.76 484.292C1277.33 485.147 1277.84 486.029 1278.28 486.934L1262.97 497.518L1254.57 484.449L1269.62 473.598ZM1252.66 485.824L1261.04 498.855L1246.07 509.206L1238.1 496.33L1252.66 485.824ZM1236.18 497.708L1244.14 510.544L1229.65 520.565L1222.07 507.889L1236.18 497.708ZM1220.14 509.275L1227.7 521.911L1213.64 531.634L1206.44 519.162L1220.14 509.275ZM1204.52 520.545L1211.7 532.976L1198.05 542.421L1191.19 530.159L1204.52 520.545ZM1189.27 531.542L1196.11 543.763L1182.82 552.951L1176.29 540.902L1189.27 531.542ZM1174.37 542.286L1180.88 554.294L1167.95 563.239L1161.73 551.406L1174.37 542.286ZM1159.8 552.798L1165.99 564.588L687.236 895.689C682.519 898.945 676.815 900.185 671.157 899.164C665.509 898.144 660.591 894.992 657.313 890.283L246.902 300.152C244.067 296.073 242.722 291.107 243.139 286.177L243.13 286.165C243.663 279.746 247.008 273.965 252.299 270.301L808.953 -114.663C809.008 -114.561 809.063 -114.458 809.117 -114.355L810.07 -112.541L285.051 266.089C279.555 270.051 276.092 276.182 275.528 282.933C275.072 288.422 276.611 293.914 279.856 298.389L689.573 863.36C697.069 873.692 711.597 876.027 721.957 868.556L1159.8 552.798ZM812.004 -113.936L811.209 -115.448C811.109 -115.638 811.008 -115.826 810.904 -116.013L815.631 -119.282C816.052 -118.678 816.45 -118.054 816.823 -117.411L812.004 -113.936ZM818.735 -118.79C818.365 -119.416 817.974 -120.026 817.562 -120.617L822.002 -123.688C822.459 -123.178 822.898 -122.647 823.317 -122.095L818.735 -118.79ZM825.224 -123.47C824.816 -124.01 824.391 -124.532 823.95 -125.035L828.064 -127.88C828.556 -127.455 829.031 -127.01 829.489 -126.546L825.224 -123.47ZM831.421 -127.939C830.982 -128.396 830.528 -128.836 830.059 -129.26L833.747 -131.81C834.276 -131.47 834.792 -131.11 835.292 -130.73L831.421 -127.939ZM837.276 -132.161C836.804 -132.54 836.32 -132.901 835.824 -133.246L838.932 -135.396C839.506 -135.146 840.071 -134.872 840.625 -134.576L837.276 -132.161ZM842.721 -136.088C842.211 -136.39 841.691 -136.674 841.163 -136.939L843.457 -138.526C844.107 -138.377 844.746 -138.202 845.373 -138L842.721 -136.088ZM847.686 -139.669C847.196 -139.863 846.698 -140.042 846.194 -140.206C846.641 -140.438 847.094 -140.653 847.553 -140.851C848.101 -140.841 848.65 -140.811 849.199 -140.76L847.686 -139.669ZM1280.41 498.367C1280.67 495.183 1280.26 492.061 1279.21 489.13L1264.24 499.482L1271.36 510.559C1271.92 511.432 1272.42 512.329 1272.86 513.247C1277.21 509.487 1279.93 504.2 1280.41 498.367ZM1269.38 511.823L1262.31 500.819L1247.31 511.192L1255.76 524.828L1270.61 514.957C1270.73 514.878 1270.85 514.799 1270.96 514.719C1270.51 513.726 1269.98 512.759 1269.38 511.823ZM1253.8 526.129L1245.37 512.531L1230.85 522.573L1238.9 536.029L1253.8 526.129ZM1236.93 537.337L1228.9 523.919L1214.82 533.662L1222.49 546.932L1236.93 537.337ZM1220.53 548.236L1212.88 535.004L1199.19 544.468L1206.51 557.549L1220.53 548.236ZM1204.55 558.852L1197.25 545.81L1183.94 555.017L1190.92 567.904L1204.55 558.852ZM1188.96 569.208L1182 556.36L1169.04 565.322L1175.71 578.013L1188.96 569.208ZM1173.74 579.323L1167.09 566.671L688.58 897.614C683.347 901.233 677.009 902.602 670.738 901.472C664.459 900.33 659.011 896.829 655.379 891.615L244.968 301.484C241.823 296.958 240.338 291.453 240.793 285.973C241.384 278.851 245.092 272.437 250.966 268.377L807.742 -116.688C807.374 -117.247 806.987 -117.79 806.581 -118.317L218.178 272.626C212.518 276.389 208.941 282.433 208.384 289.216L208.393 289.227C207.967 294.229 209.239 299.102 212.04 303.292L623.145 918.583C626.439 923.493 631.436 926.843 637.244 927.998C643.052 929.153 648.966 927.992 653.894 924.72L1173.74 579.323ZM808.551 -119.625C808.945 -119.108 809.322 -118.576 809.683 -118.031L814.199 -121.154C813.797 -121.633 813.378 -122.097 812.945 -122.544L808.551 -119.625ZM814.929 -123.863C815.346 -123.421 815.748 -122.964 816.137 -122.494L820.325 -125.39C819.887 -125.794 819.438 -126.182 818.976 -126.552L814.929 -123.863ZM821.023 -127.912C821.46 -127.542 821.887 -127.157 822.302 -126.758L826.12 -129.398C825.65 -129.728 825.169 -130.042 824.676 -130.339L821.023 -127.912ZM826.823 -131.765C827.282 -131.463 827.731 -131.146 828.171 -130.817L831.473 -133.1C830.96 -133.355 830.437 -133.593 829.904 -133.812L826.823 -131.765ZM832.216 -135.348C832.701 -135.115 833.179 -134.867 833.648 -134.605L836.223 -136.386C835.641 -136.559 835.053 -136.71 834.459 -136.839L832.216 -135.348ZM837.275 -138.514C837.73 -138.371 838.18 -138.216 838.627 -138.048L840.067 -139.044C839.567 -139.083 839.068 -139.106 838.569 -139.112C838.133 -138.927 837.701 -138.728 837.275 -138.514ZM1271.85 516.952C1272.81 519.833 1273.18 522.882 1272.92 525.979C1272.44 531.831 1269.79 537.129 1265.53 540.971C1265.08 539.998 1264.57 539.048 1264 538.124L1256.99 526.822L1271.85 516.952ZM1255.03 528.123L1262 539.364C1262.63 540.379 1263.17 541.428 1263.64 542.505C1263.26 542.777 1262.88 543.039 1262.48 543.291L1248.57 552.19L1240.1 538.043L1255.03 528.123ZM1238.13 539.351L1246.58 553.462L1231.75 562.944L1223.66 548.966L1238.13 539.351ZM1221.7 550.269L1229.76 564.212L1215.38 573.407L1207.66 559.601L1221.7 550.269ZM1205.7 560.904L1213.4 574.674L1199.43 583.604L1192.05 569.974L1205.7 560.904ZM1190.08 571.278L1197.45 584.871L1183.88 593.55L1176.81 580.099L1190.08 571.278ZM1174.84 581.409L1181.89 594.823L620.532 953.739C609.925 960.521 595.775 957.43 588.969 946.85L177.17 306.409C174.438 302.166 173.211 297.267 173.629 292.243L173.628 292.253C174.221 285.11 178.02 278.802 184.057 274.94L803.859 -121.346C804.276 -120.948 804.68 -120.536 805.072 -120.11L216.9 270.677C210.625 274.843 206.685 281.53 206.057 289.025C205.605 294.567 206.991 299.945 210.089 304.59L621.205 919.872C624.829 925.315 630.376 929.017 636.795 930.302C643.215 931.576 649.76 930.297 655.203 926.673L1174.84 581.409ZM807.059 -121.431C806.684 -121.849 806.298 -122.256 805.9 -122.651L809.915 -125.218C810.355 -124.887 810.785 -124.542 811.203 -124.183L807.059 -121.431ZM813.226 -125.528C812.831 -125.883 812.426 -126.226 812.011 -126.559L815.591 -128.847C816.056 -128.583 816.514 -128.304 816.963 -128.011L813.226 -125.528ZM819.079 -129.416C818.662 -129.711 818.237 -129.993 817.806 -130.263L820.859 -132.215C821.361 -132.02 821.854 -131.809 822.34 -131.583L819.079 -129.416ZM824.598 -133.083C824.158 -133.317 823.71 -133.538 823.255 -133.748L825.472 -135.165C825.832 -135.091 826.191 -135.008 826.55 -134.917C826.744 -134.868 826.936 -134.817 827.128 -134.764L824.598 -133.083ZM829.63 -136.427C829.219 -136.574 828.804 -136.711 828.384 -136.838C828.778 -137.029 829.176 -137.208 829.578 -137.376C830.047 -137.373 830.516 -137.356 830.983 -137.326L829.63 -136.427ZM1265.44 553.611C1265.69 550.6 1265.36 547.625 1264.48 544.798C1264.24 544.963 1264 545.124 1263.76 545.281L1249.78 554.217L1256.63 565.678C1257.22 566.661 1257.74 567.672 1258.19 568.706C1262.33 564.77 1264.96 559.39 1265.44 553.611ZM1254.61 566.894L1247.79 555.49L1232.93 564.991L1241.4 579.644L1254.36 571.658C1255.04 571.242 1255.69 570.793 1256.31 570.315C1255.84 569.141 1255.27 567.998 1254.61 566.894ZM1239.4 580.878L1230.95 566.258L1216.54 575.471L1224.65 589.968L1239.4 580.878ZM1222.65 591.201L1214.55 576.739L1200.56 585.685L1208.33 600.022L1222.65 591.201ZM1206.33 601.255L1198.58 586.953L1184.98 595.647L1192.43 609.821L1206.33 601.255ZM1190.42 611.059L1182.99 596.92L621.806 955.718C610.109 963.187 594.494 959.785 586.991 948.114L175.192 307.673C172.172 302.986 170.819 297.591 171.282 292.05C171.937 284.172 176.132 277.214 182.794 272.951L802.014 -122.953C801.626 -123.261 801.229 -123.557 800.825 -123.843L149.948 277.245C143.624 281.144 139.488 287.89 138.872 295.292C138.454 300.316 139.646 305.252 142.307 309.549L554.81 975.152C558.104 980.48 563.303 984.211 569.419 985.655C575.525 987.099 581.839 986.082 587.188 982.781L1190.42 611.059ZM802.991 -125.178C803.37 -124.891 803.741 -124.595 804.105 -124.29L807.801 -126.653C807.39 -126.903 806.972 -127.142 806.547 -127.37L802.991 -125.178ZM808.823 -128.772C809.214 -128.539 809.599 -128.296 809.978 -128.045L813.143 -130.069C812.701 -130.261 812.253 -130.441 811.801 -130.608L808.823 -128.772ZM814.282 -132.136C814.688 -131.956 815.09 -131.766 815.487 -131.567L817.96 -133.148C817.465 -133.276 816.968 -133.388 816.469 -133.484L814.282 -132.136ZM819.483 -135.161C819.849 -135.054 820.211 -134.939 820.571 -134.817L821.848 -135.634C821.447 -135.656 821.046 -135.667 820.646 -135.668C820.255 -135.511 819.868 -135.342 819.483 -135.161ZM1257.11 572.641C1257.91 575.414 1258.19 578.316 1257.95 581.243C1257.47 587.04 1254.9 592.419 1250.84 596.437C1250.39 595.346 1249.86 594.279 1249.26 593.241L1242.57 581.674L1255.59 573.652C1256.11 573.332 1256.62 572.995 1257.11 572.641ZM1240.57 582.907L1247.23 594.425C1247.92 595.613 1248.5 596.843 1248.98 598.104C1248.11 598.802 1247.19 599.443 1246.22 600.021L1234.25 607.138L1225.79 592.015L1240.57 582.907ZM1223.79 593.248L1232.23 608.339L1217.57 617.062L1209.45 602.085L1223.79 593.248ZM1207.45 603.318L1215.55 618.262L1201.32 626.727L1193.52 611.899L1207.45 603.318ZM1191.51 613.137L1199.29 627.932L553.824 1011.82C548.266 1015.12 541.752 1016.07 535.486 1014.49C529.21 1012.91 523.931 1008.98 520.612 1003.44L107.425 312.686C104.822 308.334 103.665 303.371 104.085 298.336L104.096 298.328C104.738 290.553 109.128 283.536 115.829 279.55L797.471 -125.862C797.861 -125.664 798.246 -125.457 798.625 -125.241L148.708 275.249C141.75 279.527 137.204 286.953 136.527 295.088C136.065 300.619 137.373 306.039 140.304 310.768L552.808 976.36C556.44 982.233 562.157 986.332 568.882 987.917C575.617 989.503 582.559 988.388 588.432 984.756L1191.51 613.137ZM800.884 -126.633C800.538 -126.851 800.186 -127.062 799.829 -127.265L802.784 -129.022C803.198 -128.877 803.606 -128.723 804.01 -128.559L800.884 -126.633ZM806.431 -130.052C806.072 -130.222 805.708 -130.386 805.341 -130.543L807.45 -131.797C807.904 -131.715 808.356 -131.62 808.804 -131.514L806.431 -130.052ZM811.525 -133.19C811.206 -133.294 810.885 -133.391 810.562 -133.483C810.916 -133.645 811.273 -133.798 811.632 -133.942C811.992 -133.943 812.352 -133.937 812.712 -133.922L811.525 -133.19ZM1250.49 608.869C1250.72 606.025 1250.47 603.199 1249.74 600.484C1249 601.035 1248.24 601.55 1247.44 602.025L1235.4 609.185L1241.9 620.806C1242.51 621.899 1243.05 623.024 1243.5 624.174C1247.49 620.087 1250 614.694 1250.49 608.869ZM1239.85 621.956L1233.38 610.386L1218.68 619.125L1227.12 634.68L1238.1 628.368C1239.36 627.642 1240.54 626.814 1241.64 625.897C1241.16 624.545 1240.56 623.227 1239.85 621.956ZM1225.08 635.85L1216.67 620.326L1202.41 628.806L1210.51 644.223L1225.08 635.85ZM1208.47 645.397L1200.38 630.011L555.042 1013.83C548.951 1017.46 541.809 1018.5 534.927 1016.76C528.042 1015.03 522.248 1010.72 518.611 1004.64L105.423 313.884C102.572 309.103 101.3 303.656 101.76 298.135C102.465 289.617 107.275 281.922 114.631 277.548L794.854 -127.019C794.49 -127.158 794.121 -127.29 793.749 -127.414L81.6983 281.863C74.6208 285.937 69.9873 293.226 69.31 301.362L69.319 301.374C68.9086 306.42 70.0305 311.409 72.574 315.817L486.455 1031.73C493.316 1043.6 508.582 1047.69 520.482 1040.85L1208.47 645.397ZM796.398 -128.936C796.726 -128.802 797.051 -128.662 797.372 -128.517L799.697 -129.9C799.295 -129.989 798.892 -130.068 798.489 -130.138L796.398 -128.936ZM802.235 -131.661C802.328 -131.633 802.422 -131.605 802.515 -131.576L803.57 -132.203C803.26 -132.212 802.95 -132.215 802.64 -132.213C802.322 -132.087 802.006 -131.956 801.693 -131.817C801.874 -131.767 802.054 -131.715 802.235 -131.661ZM1242.37 628.312C1243.03 630.971 1243.25 633.728 1243.02 636.493C1242.54 642.347 1240.08 647.753 1236.15 651.907C1235.7 650.7 1235.16 649.519 1234.53 648.37L1228.23 636.735L1239.27 630.387C1240.36 629.761 1241.39 629.067 1242.37 628.312ZM1226.19 637.905L1232.47 649.487C1233.2 650.842 1233.81 652.247 1234.3 653.687C1232.98 654.829 1231.53 655.845 1229.97 656.712L1219.99 662.259L1211.6 646.293L1226.19 637.905ZM1209.56 647.467L1217.93 663.404L487.14 1069.88C481.16 1073.21 474.248 1074 467.662 1072.14C461.076 1070.28 455.617 1065.97 452.278 1060.01L37.7025 318.945C35.217 314.492 34.1197 309.474 34.5327 304.408C35.2363 295.899 40.1146 288.328 47.578 284.177L789.487 -128.467C789.842 -128.409 790.196 -128.344 790.55 -128.271L80.5337 279.845C72.7805 284.304 67.715 292.28 66.9825 301.182C66.5326 306.703 67.7512 312.165 70.5445 316.99L484.425 1032.9C491.939 1045.89 508.648 1050.38 521.665 1042.89L1209.56 647.467ZM793.483 -129.957L794.46 -130.519C794.207 -130.523 793.955 -130.524 793.702 -130.521C793.398 -130.404 793.094 -130.281 792.792 -130.151C793.023 -130.09 793.253 -130.025 793.483 -129.957ZM1235.56 664.108C1235.78 661.429 1235.58 658.753 1234.99 656.162C1233.78 657.125 1232.49 657.995 1231.12 658.759L1221.09 664.338L1227.18 675.936C1227.81 677.135 1228.35 678.369 1228.81 679.63C1232.66 675.412 1235.07 669.992 1235.56 664.108ZM1225.09 677.018L1219.03 665.483L488.26 1071.92C481.742 1075.54 474.192 1076.42 467.002 1074.38C459.811 1072.35 453.848 1067.64 450.203 1061.13L35.6269 320.071C32.9108 315.213 31.7166 309.723 32.1768 304.203C32.9487 294.909 38.2692 286.652 46.4288 282.12L785.273 -128.82C785.092 -128.821 784.911 -128.82 784.73 -128.817C783.639 -128.404 782.569 -127.915 781.526 -127.352L13.4689 286.483C5.60816 290.719 0.477445 298.551 -0.253879 307.442L-0.255185 307.453C-0.678535 312.518 0.393047 317.574 2.83088 322.073L418.1 1088.29C424.999 1101.03 441.005 1105.79 453.776 1098.91L1221.84 685.057C1223.7 684.054 1225.41 682.848 1226.95 681.472C1226.47 679.945 1225.85 678.455 1225.09 677.018ZM1227.61 684.001C1226.18 685.181 1224.62 686.231 1222.95 687.131L454.882 1100.99C440.977 1108.48 423.532 1103.29 416.016 1089.41L0.746392 323.187C-1.91187 318.285 -3.06104 312.769 -2.61117 307.248C-1.80116 297.572 3.78472 289.036 12.3403 284.428L776.841 -127.501C775.402 -127.032 773.993 -126.439 772.627 -125.724L-20.6426 288.809C-28.8879 293.111 -34.2736 301.224 -35.0416 310.487L-35.0518 310.486C-35.4765 315.561 -34.441 320.655 -32.0508 325.199L383.913 1116.57C387.272 1122.95 392.913 1127.65 399.807 1129.8C406.711 1131.95 414.023 1131.29 420.424 1127.94L1213.7 713.422C1221.94 709.108 1227.32 701.005 1228.09 691.732C1228.31 689.131 1228.15 686.53 1227.61 684.001Z" fill="url(#paint1_linear_894_16074)" fill-opacity="0.18"/>
</g>
</g>
<defs>
<linearGradient id="paint0_linear_894_16074" x1="381.881" y1="-260.906" x2="204.723" y2="388.262" gradientUnits="userSpaceOnUse">
<stop stop-color="#987012"/>
<stop offset="1" stop-color="#F9F8F5"/>
</linearGradient>
<linearGradient id="paint1_linear_894_16074" x1="727.893" y1="-199.789" x2="327.334" y2="494" gradientUnits="userSpaceOnUse">
<stop stop-color="#6F561F"/>
<stop offset="1" stop-color="#F9F8F5"/>
</linearGradient>
<clipPath id="clip0_894_16074">
<rect width="800" height="1204" rx="40" fill="white"/>
</clipPath>
<clipPath id="clip1_894_16074">
<rect width="798.294" height="662" fill="white" transform="translate(0 -54)"/>
</clipPath>
</defs>
</svg>
