<svg width="24" height="24" viewBox="0 0 24 24" fill="none" xmlns="http://www.w3.org/2000/svg">
<path d="M12 24C18.6274 24 24 18.6274 24 12C24 5.37258 18.6274 0 12 0C5.37258 0 0 5.37258 0 12C0 18.6274 5.37258 24 12 24Z" fill="#9FA4A4"/>
<path d="M6.5293 9.02884C6.62824 8.50737 6.72184 7.98589 7.00531 7.52058C7.65247 6.46427 8.66599 6.05779 9.83463 6.03104C11.4258 5.99093 13.0196 5.9936 14.6134 6.03104C15.6938 6.05779 16.6565 6.41346 17.3144 7.34943C17.7369 7.9538 17.8947 8.64375 17.9054 9.35777C17.9295 10.8874 17.9402 12.4197 17.9054 13.9494C17.876 15.1822 17.4481 16.2332 16.2955 16.8589C15.7634 17.1478 15.1777 17.2734 14.5814 17.2815C13.0089 17.3002 11.4365 17.3162 9.86404 17.2815C8.68471 17.2547 7.66049 16.8563 7.00531 15.7893C6.72184 15.3266 6.62824 14.8025 6.5293 14.281V9.02884H6.5293ZM12.2334 7.10875C11.4525 7.10875 10.6717 7.09271 9.89078 7.11143C8.67134 7.14084 7.92256 7.71045 7.7006 8.76142C7.65247 8.98338 7.6177 9.21336 7.6177 9.44067C7.60968 10.9195 7.59096 12.3983 7.62038 13.8772C7.64979 15.348 8.39322 16.1342 9.81323 16.1877C11.4151 16.2465 13.0196 16.2412 14.6215 16.1877C15.8035 16.1476 16.5068 15.5807 16.7314 14.5591C16.7715 14.3773 16.809 14.1901 16.8117 14.0029C16.8197 12.3181 16.9133 10.6307 16.7608 8.94861C16.6699 7.95113 16.004 7.3013 15.0092 7.16491C14.0866 7.03922 13.1587 7.12747 12.2334 7.10875Z" fill="white"/>
<path d="M15.1691 11.6709C15.1637 13.2594 13.8453 14.5644 12.2274 14.5831C10.6042 14.6019 9.25639 13.2621 9.26173 11.6335C9.26708 10.0316 10.6336 8.68918 12.2328 8.72127C13.8748 8.75336 15.1717 10.0584 15.1664 11.6709H15.1691ZM14.0753 11.6576C14.0753 10.6467 13.2436 9.81769 12.2221 9.81235C11.2059 9.807 10.3608 10.6387 10.3582 11.6469C10.3582 12.6577 11.1898 13.4867 12.2114 13.4921C13.2276 13.4974 14.0726 12.6657 14.0753 11.6576Z" fill="white"/>
<path d="M15.2506 7.95124C15.641 7.94589 15.9726 8.26947 15.9726 8.65723C15.9726 9.02627 15.6517 9.3445 15.2746 9.3552C14.8842 9.3659 14.5446 9.04766 14.5392 8.66258C14.5312 8.27482 14.8521 7.95659 15.2532 7.95124H15.2506Z" fill="white"/>
</svg>
