<svg width="156" height="59" viewBox="0 0 156 59" fill="none" xmlns="http://www.w3.org/2000/svg">
<path d="M31.3129 27.6502V15.0539C31.3129 13.8679 31.3496 12.564 31.4257 11.1445L31.4729 10.0872H31.2814C30.9403 11.8923 30.6779 13.1438 30.4969 13.8365L27.115 27.6502H20.6082L17.0662 13.9965C16.9691 13.6554 16.7199 12.3514 16.3132 10.0872H16.1217C16.2712 13.6764 16.3473 15.9197 16.3473 16.8196V27.6529H10.2734V4.67188H20.6423L23.7986 17.1554C23.8721 17.4126 23.9718 17.932 24.0951 18.7192C24.2184 19.5036 24.2945 20.1123 24.3286 20.5374H24.4257C24.5437 19.5666 24.73 18.4174 24.9871 17.0925L27.9362 4.67188H38.145V27.6529H31.3181L31.3129 27.6502Z" fill="#010101"/>
<path d="M57.0677 27.6489L56.0576 23.4169H49.1992L48.1104 27.6489H40.625L48.5433 4.66797H57.1333L64.5846 27.6489H57.0677ZM52.7098 9.66874H52.5497C52.5287 9.92586 52.4526 10.3483 52.3241 10.936C52.1955 11.5237 51.5501 14.0451 50.3852 18.5001H54.7772L53.1742 12.2505C52.9485 11.3322 52.7937 10.4716 52.7098 9.67136V9.66874Z" fill="#010101"/>
<path d="M82.1511 27.6489V19.0747H74.2013V27.6489H67.2773V4.66797H74.2013V13.1792H82.1511V4.66797H89.075V27.6489H82.1511Z" fill="#010101"/>
<path d="M108.013 27.6489L107.003 23.4169H100.145L99.0557 27.6489H91.5703L99.4886 4.66797H108.079L115.53 27.6489H108.013ZM103.655 9.66874H103.495C103.474 9.92586 103.398 10.3483 103.269 10.936C103.141 11.5237 102.495 14.0451 101.33 18.5001H105.723L104.119 12.2505C103.894 11.3322 103.739 10.4716 103.655 9.67136V9.66874Z" fill="#010101"/>
<path d="M139.268 27.6502V15.0539C139.268 13.8679 139.305 12.564 139.381 11.1445L139.428 10.0872H139.236C138.895 11.8923 138.633 13.1438 138.452 13.8365L135.07 27.6502H128.563L125.021 13.9965C124.924 13.6554 124.675 12.3514 124.268 10.0872H124.077C124.226 13.6764 124.302 15.9197 124.302 16.8196V27.6529H118.229V4.67188H128.597L131.754 17.1554C131.827 17.4126 131.927 17.932 132.05 18.7192C132.173 19.5036 132.25 20.1123 132.284 20.5374H132.381C132.499 19.5666 132.685 18.4174 132.942 17.0925L135.891 4.67188H146.1V27.6529H139.273L139.268 27.6502Z" fill="#010101"/>
<path d="M116.711 17.8778C107.205 18.6833 97.8019 20.0293 88.4668 22.1991C72.0581 26.0139 56.1323 32.1901 42.0666 41.5226C36.7615 45.083 31.8237 48.9555 27.2559 53.6021H38.2701C43.9373 47.9166 50.0558 43.1178 56.7016 38.8753C72.5514 28.5091 96.1385 20.5907 114.746 18.3632L118.881 17.8673C118.104 17.7807 117.482 17.8122 116.714 17.8778H116.711ZM49.0667 46.5549L58.7848 53.6257L69.5866 53.5549L54.5686 42.4802C52.6611 43.8262 50.8718 45.1328 49.0693 46.5522L49.0667 46.5549ZM46.6817 36.4011L38.8369 30.8022L28.0141 30.8389L40.7259 40.1714L46.6817 36.4011Z" fill="url(#paint0_linear_894_16079)"/>
<path d="M10.2715 54.4732V31.4922H24.5838V36.9101H17.1954V40.2606H24.1351V45.6785H17.1954V49.0605H25.1138V54.4784H10.2741L10.2715 54.4732Z" fill="#010101"/>
<path d="M93.3963 39.072C93.3963 40.6436 92.9975 42.0368 92.2026 43.2542C91.4076 44.4716 90.2715 45.4162 88.797 46.0826C87.3225 46.7516 85.6066 47.0848 83.6519 47.0848H81.5372V54.4732H74.6133V31.4922H84.0376C87.2753 31.4922 89.6445 32.1061 91.1452 33.334C92.646 34.5619 93.3963 36.4746 93.3963 39.072ZM86.071 39.3108C86.071 38.3715 85.7981 37.6605 85.2524 37.1804C84.7066 36.7002 83.9064 36.4588 82.8491 36.4588H81.5346V42.1313H83.0905C85.0766 42.1313 86.071 41.192 86.071 39.3108Z" fill="#010101"/>
<path d="M117.995 42.9193C117.995 45.2282 117.499 47.293 116.505 49.1139C115.511 50.9347 114.123 52.3515 112.339 53.3616C110.554 54.3718 108.555 54.8755 106.343 54.8755C104.132 54.8755 102.222 54.3875 100.453 53.4089C98.6848 52.4302 97.31 51.058 96.3261 49.2896C95.3422 47.5213 94.8516 45.522 94.8516 43.2866C94.8516 41.0512 95.3474 38.8421 96.3418 36.9714C97.3362 35.1007 98.7294 33.6577 100.524 32.637C102.319 31.6164 104.36 31.1074 106.645 31.1074C108.93 31.1074 110.814 31.5954 112.551 32.5741C114.288 33.5527 115.629 34.9459 116.573 36.7562C117.518 38.5666 117.993 40.621 117.993 42.9193H117.995ZM110.654 43.1108C110.654 41.2192 110.289 39.7289 109.565 38.6401C108.838 37.5512 107.844 37.0055 106.585 37.0055C105.207 37.0055 104.132 37.5302 103.363 38.5771C102.594 39.6239 102.208 41.1037 102.208 43.0164C102.208 44.9291 102.591 46.3459 103.355 47.3927C104.118 48.4396 105.157 48.9643 106.472 48.9643C107.272 48.9643 107.994 48.7308 108.636 48.2585C109.277 47.7889 109.775 47.1146 110.127 46.2383C110.478 45.362 110.657 44.3204 110.657 43.1135L110.654 43.1108Z" fill="#010101"/>
<path d="M89.0724 27.6478V21.7891H82.1484V27.6478" fill="#010101"/>
<defs>
<linearGradient id="paint0_linear_894_16079" x1="27.2559" y1="35.7216" x2="118.878" y2="35.7216" gradientUnits="userSpaceOnUse">
<stop stop-color="#987012"/>
<stop offset="1" stop-color="#CCA12E"/>
</linearGradient>
</defs>
</svg>
