<svg width="24" height="24" viewBox="0 0 24 24" fill="none" xmlns="http://www.w3.org/2000/svg">
<path d="M12 24C18.6274 24 24 18.6274 24 12C24 5.37258 18.6274 0 12 0C5.37258 0 0 5.37258 0 12C0 18.6274 5.37258 24 12 24Z" fill="#9FA4A4"/>
<g clip-path="url(#clip0_894_16045)">
<path d="M16.025 5.67188H18.1728L13.4817 11.0321L19 18.3273H14.6804L11.2948 13.9039L7.42492 18.3273H5.27358L10.2902 12.5925L5 5.67188H9.42925L12.4865 9.71496L16.025 5.67188ZM15.2708 17.0434H16.4602L8.78117 6.88871H7.50367L15.2708 17.0434Z" fill="white"/>
</g>
<defs>
<clipPath id="clip0_894_16045">
<rect width="14" height="14" fill="white" transform="translate(5 5)"/>
</clipPath>
</defs>
</svg>
