<svg width="24" height="24" viewBox="0 0 24 24" fill="none" xmlns="http://www.w3.org/2000/svg">
<path d="M12 24C18.6274 24 24 18.6274 24 12C24 5.37258 18.6274 0 12 0C5.37258 0 0 5.37258 0 12C0 18.6274 5.37258 24 12 24Z" fill="#9FA4A4"/>
<path d="M18.7072 8.64156C18.5462 8.03548 18.0719 7.55773 17.4693 7.39556C16.3779 7.10156 12 7.10156 12 7.10156C12 7.10156 7.62208 7.10156 6.53008 7.39556C5.92808 7.55773 5.45383 8.0349 5.29283 8.64156C5 9.74056 5 12.0331 5 12.0331C5 12.0331 5 14.3256 5.29283 15.4246C5.45383 16.0306 5.92808 16.5084 6.53067 16.6706C7.62208 16.9646 12 16.9646 12 16.9646C12 16.9646 16.3779 16.9646 17.4699 16.6706C18.0719 16.5084 18.5462 16.0312 18.7078 15.4246C19 14.3256 19 12.0331 19 12.0331C19 12.0331 19 9.74056 18.7072 8.64156ZM10.5685 14.115V9.95115L14.2272 12.0331L10.5685 14.115Z" fill="#F5F6F6"/>
</svg>
